<svg width="24" height="24" viewBox="0 0 24 24" fill="none" xmlns="http://www.w3.org/2000/svg">
<path fill-rule="evenodd" clip-rule="evenodd" d="M3.25 10.03C3.25 7.33 5.62 5.25 8.4 5.25C9.833 5.25 11.095 5.922 12 6.792C12.905 5.922 14.166 5.25 15.6 5.25C18.38 5.25 20.75 7.33 20.75 10.03C20.75 11.88 19.961 13.506 18.868 14.882C17.778 16.254 16.35 17.419 14.984 18.366C14.461 18.728 13.934 19.061 13.45 19.307C12.997 19.538 12.475 19.75 12 19.75C11.525 19.75 11.004 19.538 10.55 19.307C10.0194 19.0265 9.5073 18.7122 9.017 18.366C7.65 17.419 6.223 16.254 5.132 14.882C4.039 13.506 3.25 11.88 3.25 10.03ZM8.4 6.75C6.32 6.75 4.75 8.28 4.75 10.03C4.75 11.433 5.346 12.74 6.306 13.948C7.268 15.158 8.563 16.227 9.871 17.133C10.366 17.476 10.831 17.767 11.231 17.971C11.659 18.189 11.907 18.25 12 18.25C12.093 18.25 12.341 18.189 12.77 17.97C13.2414 17.7215 13.6958 17.4419 14.13 17.133C15.437 16.227 16.732 15.159 17.694 13.948C18.654 12.74 19.25 11.433 19.25 10.03C19.25 8.28 17.68 6.75 15.6 6.75C14.406 6.75 13.29 7.463 12.595 8.369C12.525 8.46026 12.4349 8.53419 12.3317 8.58507C12.2285 8.63595 12.115 8.66241 12 8.66241C11.885 8.66241 11.7715 8.63595 11.6683 8.58507C11.5651 8.53419 11.475 8.46026 11.405 8.369C10.71 7.463 9.595 6.75 8.4 6.75Z" fill="#275DA4"/>
</svg>
