<svg width="24" height="24" viewBox="0 0 24 24" fill="none" xmlns="http://www.w3.org/2000/svg">
<path fill-rule="evenodd" clip-rule="evenodd" d="M2.45984 16.82C2.35149 16.708 2.28075 16.5649 2.25745 16.4108C2.23415 16.2567 2.25945 16.0991 2.32984 15.96L3.03184 14.574C3.84613 12.9661 5.09016 11.6154 6.62578 10.6718C8.16141 9.7283 9.92851 9.22887 11.7308 9.22902H12.0758C12.1005 8.68235 12.1328 8.13635 12.1728 7.59102L12.2408 6.66002C12.2535 6.48697 12.3109 6.32018 12.4074 6.17598C12.5039 6.03178 12.6362 5.91511 12.7914 5.8374C12.9465 5.75968 13.1191 5.72358 13.2924 5.73263C13.4657 5.74167 13.6336 5.79556 13.7798 5.88902C15.8777 7.22877 17.7012 8.95589 19.1528 10.978L19.6088 11.613C19.7004 11.7405 19.7497 11.8935 19.7497 12.0505C19.7497 12.2075 19.7004 12.3605 19.6088 12.488L19.1528 13.123C17.7012 15.1451 15.8777 16.8723 13.7798 18.212C13.6336 18.3055 13.4657 18.3594 13.2924 18.3684C13.1191 18.3775 12.9465 18.3414 12.7914 18.2636C12.6362 18.1859 12.5039 18.0693 12.4074 17.9251C12.3109 17.7809 12.2535 17.6141 12.2408 17.441L12.1728 16.511C12.1255 15.8593 12.0885 15.2069 12.0618 14.554C9.90089 14.4915 7.75483 14.9303 5.79184 15.836L3.31384 16.98C3.1725 17.0453 3.01434 17.0649 2.86131 17.0363C2.70829 17.0076 2.56798 16.932 2.45984 16.82ZM4.67784 14.698L5.16284 14.474C7.56388 13.3663 10.2084 12.8912 12.8448 13.094C13.0293 13.1082 13.202 13.1901 13.3297 13.324C13.4575 13.4578 13.5312 13.6341 13.5368 13.819C13.5622 14.6804 13.6062 15.541 13.6688 16.401L13.6748 16.476C15.3202 15.3136 16.76 13.8846 17.9348 12.248L18.0768 12.05L17.9348 11.853C16.76 10.2164 15.3202 8.78745 13.6748 7.62502L13.6688 7.70002C13.6131 8.46716 13.5721 9.2353 13.5458 10.004C13.5394 10.1986 13.4575 10.383 13.3175 10.5183C13.1776 10.6535 12.9905 10.7291 12.7958 10.729H11.7308C10.3133 10.7289 8.91961 11.0941 7.68422 11.7893C6.44884 12.4845 5.41343 13.4862 4.67784 14.698Z" fill="#4A5354"/>
</svg>
