<svg width="24" height="24" viewBox="0 0 24 24" fill="none" xmlns="http://www.w3.org/2000/svg">
<g clip-path="url(#clip0_2255_1943)">
<path fill-rule="evenodd" clip-rule="evenodd" d="M7.38447 11.0769C7.8741 11.0769 8.34367 10.8824 8.68989 10.5362C9.03611 10.19 9.23062 9.72041 9.23062 9.23078C9.23062 8.74115 9.03611 8.27157 8.68989 7.92535C8.34367 7.57913 7.8741 7.38462 7.38447 7.38462C6.89483 7.38462 6.42526 7.57913 6.07904 7.92535C5.73282 8.27157 5.53831 8.74115 5.53831 9.23078C5.53831 9.72041 5.73282 10.19 6.07904 10.5362C6.42526 10.8824 6.89483 11.0769 7.38447 11.0769ZM7.38447 12C8.11891 12 8.82328 11.7083 9.34261 11.1889C9.86194 10.6696 10.1537 9.96522 10.1537 9.23078C10.1537 8.49633 9.86194 7.79197 9.34261 7.27264C8.82328 6.75331 8.11891 6.46155 7.38447 6.46155C6.65002 6.46155 5.94565 6.75331 5.42632 7.27264C4.90699 7.79197 4.61523 8.49633 4.61523 9.23078C4.61523 9.96522 4.90699 10.6696 5.42632 11.1889C5.94565 11.7083 6.65002 12 7.38447 12Z" fill="#4A5354"/>
<path fill-rule="evenodd" clip-rule="evenodd" d="M6.32673 10.9809C6.36971 11.0238 6.40381 11.0747 6.42708 11.1308C6.45035 11.1869 6.46233 11.247 6.46233 11.3077C6.46233 11.3684 6.45035 11.4285 6.42708 11.4846C6.40381 11.5407 6.36971 11.5916 6.32673 11.6345L6.01473 11.9456C5.4143 12.5461 5.07696 13.3606 5.07689 14.2099V15.9231C5.07689 16.0455 5.02826 16.1629 4.9417 16.2494C4.85515 16.336 4.73775 16.3846 4.61535 16.3846C4.49294 16.3846 4.37555 16.336 4.28899 16.2494C4.20243 16.1629 4.15381 16.0455 4.15381 15.9231V14.2099C4.15394 13.1158 4.58856 12.0666 5.36212 11.2929L5.67319 10.9809C5.71607 10.938 5.767 10.9039 5.82307 10.8806C5.87914 10.8573 5.93925 10.8453 5.99996 10.8453C6.06067 10.8453 6.12078 10.8573 6.17686 10.8806C6.23293 10.9039 6.28386 10.938 6.32673 10.9809ZM17.2117 10.704C17.1687 10.7469 17.1346 10.7978 17.1113 10.8539C17.088 10.91 17.0761 10.9701 17.0761 11.0308C17.0761 11.0915 17.088 11.1516 17.1113 11.2077C17.1346 11.2637 17.1687 11.3147 17.2117 11.3576L17.5237 11.6686C18.1241 12.2692 18.4614 13.0837 18.4615 13.9329V15.9231C18.4615 16.0455 18.5101 16.1629 18.5967 16.2494C18.6832 16.336 18.8006 16.3846 18.923 16.3846C19.0454 16.3846 19.1628 16.336 19.2494 16.2494C19.336 16.1629 19.3846 16.0455 19.3846 15.9231V13.9329C19.3844 12.8389 18.9498 11.7897 18.1763 11.016L17.8652 10.704C17.8223 10.661 17.7714 10.6269 17.7153 10.6037C17.6592 10.5804 17.5991 10.5684 17.5384 10.5684C17.4777 10.5684 17.4176 10.5804 17.3615 10.6037C17.3055 10.6269 17.2545 10.661 17.2117 10.704Z" fill="#4A5354"/>
<path fill-rule="evenodd" clip-rule="evenodd" d="M15.6922 11.0769C15.2026 11.0769 14.733 10.8824 14.3868 10.5362C14.0406 10.19 13.8461 9.72041 13.8461 9.23078C13.8461 8.74115 14.0406 8.27157 14.3868 7.92535C14.733 7.57913 15.2026 7.38462 15.6922 7.38462C16.1819 7.38462 16.6514 7.57913 16.9977 7.92535C17.3439 8.27157 17.5384 8.74115 17.5384 9.23078C17.5384 9.72041 17.3439 10.19 16.9977 10.5362C16.6514 10.8824 16.1819 11.0769 15.6922 11.0769ZM15.6922 12C14.9578 12 14.2534 11.7083 13.7341 11.1889C13.2148 10.6696 12.923 9.96522 12.923 9.23078C12.923 8.49633 13.2148 7.79197 13.7341 7.27264C14.2534 6.75331 14.9578 6.46155 15.6922 6.46155C16.4267 6.46155 17.131 6.75331 17.6504 7.27264C18.1697 7.79197 18.4615 8.49633 18.4615 9.23078C18.4615 9.96522 18.1697 10.6696 17.6504 11.1889C17.131 11.7083 16.4267 12 15.6922 12ZM11.5384 15C10.9263 15 10.3394 15.2431 9.9066 15.6759C9.47383 16.1087 9.23069 16.6957 9.23069 17.3077V18.5077C9.23069 18.6301 9.18207 18.7475 9.09551 18.8341C9.00896 18.9206 8.89156 18.9692 8.76916 18.9692C8.64675 18.9692 8.52935 18.9206 8.4428 18.8341C8.35624 18.7475 8.30762 18.6301 8.30762 18.5077V17.3077C8.30762 16.4508 8.648 15.6291 9.25389 15.0232C9.85977 14.4173 10.6815 14.0769 11.5384 14.0769C12.3952 14.0769 13.217 14.4173 13.8229 15.0232C14.4288 15.6291 14.7692 16.4508 14.7692 17.3077V18.5077C14.7692 18.6301 14.7205 18.7475 14.634 18.8341C14.5474 18.9206 14.43 18.9692 14.3076 18.9692C14.1852 18.9692 14.0678 18.9206 13.9813 18.8341C13.8947 18.7475 13.8461 18.6301 13.8461 18.5077V17.3077C13.8461 16.6957 13.6029 16.1087 13.1702 15.6759C12.7374 15.2431 12.1504 15 11.5384 15Z" fill="#4A5354"/>
<path fill-rule="evenodd" clip-rule="evenodd" d="M11.5383 13.6154C12.0279 13.6154 12.4975 13.4209 12.8437 13.0747C13.1899 12.7284 13.3844 12.2589 13.3844 11.7692C13.3844 11.2796 13.1899 10.81 12.8437 10.4638C12.4975 10.1176 12.0279 9.92308 11.5383 9.92308C11.0486 9.92308 10.5791 10.1176 10.2328 10.4638C9.88663 10.81 9.69212 11.2796 9.69212 11.7692C9.69212 12.2589 9.88663 12.7284 10.2328 13.0747C10.5791 13.4209 11.0486 13.6154 11.5383 13.6154ZM11.5383 14.5385C12.2727 14.5385 12.9771 14.2467 13.4964 13.7274C14.0157 13.208 14.3075 12.5037 14.3075 11.7692C14.3075 11.0348 14.0157 10.3304 13.4964 9.81109C12.9771 9.29176 12.2727 9 11.5383 9C10.8038 9 10.0995 9.29176 9.58013 9.81109C9.0608 10.3304 8.76904 11.0348 8.76904 11.7692C8.76904 12.5037 9.0608 13.208 9.58013 13.7274C10.0995 14.2467 10.8038 14.5385 11.5383 14.5385Z" fill="#4A5354"/>
<path fill-rule="evenodd" clip-rule="evenodd" d="M11.9999 22.6154C17.8623 22.6154 22.6153 17.8625 22.6153 12C22.6153 6.13755 17.8623 1.38462 11.9999 1.38462C6.13743 1.38462 1.3845 6.13755 1.3845 12C1.3845 17.8625 6.13743 22.6154 11.9999 22.6154ZM11.9999 23.5385C18.3728 23.5385 23.5383 18.3729 23.5383 12C23.5383 5.62709 18.3728 0.461548 11.9999 0.461548C5.62696 0.461548 0.461426 5.62709 0.461426 12C0.461426 18.3729 5.62696 23.5385 11.9999 23.5385Z" fill="#4A5354"/>
</g>
<defs>
<clipPath id="clip0_2255_1943">
<rect width="24" height="24" fill="white"/>
</clipPath>
</defs>
</svg>
