<svg width="24" height="24" viewBox="0 0 24 24" fill="none" xmlns="http://www.w3.org/2000/svg">
<path fill-rule="evenodd" clip-rule="evenodd" d="M13.5581 5.53405C13.1391 5.13191 12.5808 4.90736 12.0001 4.90736C11.4193 4.90736 10.8611 5.13191 10.4421 5.53405L5.81606 9.97405C5.70277 10.0829 5.62652 10.2245 5.59806 10.379C5.0432 13.4005 5.0023 16.494 5.47706 19.529L5.58906 20.25H8.56606V14.039C8.56606 13.8401 8.64508 13.6494 8.78573 13.5087C8.92638 13.3681 9.11715 13.289 9.31606 13.289H14.6841C14.883 13.289 15.0737 13.3681 15.2144 13.5087C15.355 13.6494 15.4341 13.8401 15.4341 14.039V20.25H18.4111L18.5231 19.53C18.9983 16.4947 18.9577 13.4009 18.4031 10.379C18.3743 10.2244 18.2977 10.0827 18.1841 9.97405L13.5581 5.53405ZM9.40406 4.45205C10.1023 3.78221 11.0325 3.4082 12.0001 3.4082C12.9677 3.4082 13.8978 3.78221 14.5961 4.45205L19.2231 8.89205C19.5631 9.21805 19.7931 9.64405 19.8781 10.108C20.4613 13.2958 20.5042 16.559 20.0051 19.761L19.8251 20.918C19.7896 21.1502 19.672 21.3619 19.4936 21.5146C19.3152 21.6673 19.0879 21.7508 18.8531 21.75H14.6841C14.4852 21.75 14.2944 21.671 14.1537 21.5304C14.0131 21.3897 13.9341 21.199 13.9341 21V14.789H10.0661V21C10.0661 21.199 9.98704 21.3897 9.84639 21.5304C9.70574 21.671 9.51497 21.75 9.31606 21.75H5.14706C4.91224 21.7508 4.68495 21.6673 4.50655 21.5146C4.32816 21.3619 4.21052 21.1502 4.17506 20.918L3.99506 19.761C3.49588 16.559 3.53881 13.2958 4.12206 10.108C4.20706 9.64405 4.43706 9.21805 4.77706 8.89105L9.40406 4.45205Z" fill="#4A5354"/>
</svg>
