<svg width="41" height="40" viewBox="0 0 41 40" fill="none" xmlns="http://www.w3.org/2000/svg">
<path d="M8.51692 15V35H1.85025V15H8.51692ZM15.1836 35C14.2995 35 13.4517 34.6488 12.8266 34.0237C12.2014 33.3986 11.8503 32.5507 11.8503 31.6667V15C11.8503 14.0833 12.2169 13.25 12.8336 12.65L23.8003 1.66666L25.5669 3.43332C26.0169 3.88332 26.3003 4.49999 26.3003 5.18332L26.2503 5.71666L24.6669 13.3333H35.1836C36.0676 13.3333 36.9155 13.6845 37.5406 14.3096C38.1657 14.9348 38.5169 15.7826 38.5169 16.6667V20C38.5169 20.4333 38.4336 20.8333 38.2836 21.2167L33.2503 32.9667C32.7503 34.1667 31.5669 35 30.1836 35H15.1836ZM15.1836 31.6667H30.2336L35.1836 20V16.6667H20.5336L22.4169 7.79999L15.1836 15.05V31.6667Z" fill="#E9EEEE"/>
</svg>
