<svg width="16" height="17" viewBox="0 0 16 17" fill="none" xmlns="http://www.w3.org/2000/svg">
<path d="M5.67603 13.8333H3.00936C2.65574 13.8333 2.3166 13.6928 2.06655 13.4428C1.8165 13.1927 1.67603 12.8536 1.67603 12.5V4.49996C1.67603 4.14634 1.8165 3.8072 2.06655 3.55715C2.3166 3.3071 2.65574 3.16663 3.00936 3.16663H5.67603V4.49996H3.00936V12.5H5.67603V13.8333Z" fill="#212529"/>
<path d="M9.22808 12.0899L10.1748 11.1513L7.56142 8.51595H13.6574C13.8342 8.51595 14.0038 8.44571 14.1288 8.32068C14.2538 8.19566 14.3241 8.02609 14.3241 7.84928C14.3241 7.67247 14.2538 7.5029 14.1288 7.37788C14.0038 7.25285 13.8342 7.18261 13.6574 7.18261H7.54942L10.2028 4.55128L9.26408 3.60461L5.00342 7.82928L9.22808 12.0899Z" fill="#212529"/>
</svg>
