<svg width="17" height="16" viewBox="0 0 17 16" fill="none" xmlns="http://www.w3.org/2000/svg">
<g clip-path="url(#clip0_2172_8073)">
<path d="M7.77999 1.912C7.85335 1.78611 7.95845 1.68165 8.08478 1.60905C8.21112 1.53645 8.35428 1.49825 8.49999 1.49825C8.6457 1.49825 8.78886 1.53645 8.9152 1.60905C9.04153 1.68165 9.14663 1.78611 9.21999 1.912L11.0833 5.11067L14.702 5.89467C14.8443 5.9256 14.9761 5.9933 15.0841 6.09102C15.1921 6.18875 15.2726 6.31308 15.3176 6.45162C15.3626 6.59016 15.3705 6.73807 15.3405 6.88061C15.3105 7.02316 15.2437 7.15534 15.1467 7.264L12.68 10.0247L13.0533 13.708C13.0681 13.853 13.0445 13.9994 12.9849 14.1325C12.9254 14.2656 12.832 14.3807 12.7141 14.4664C12.5961 14.5521 12.4578 14.6053 12.3128 14.6208C12.1679 14.6363 12.0214 14.6135 11.888 14.5547L8.49999 13.0613L5.11199 14.5547C4.9786 14.6135 4.83212 14.6363 4.68716 14.6208C4.5422 14.6053 4.40385 14.5521 4.2859 14.4664C4.16796 14.3807 4.07457 14.2656 4.01504 14.1325C3.95551 13.9994 3.93193 13.853 3.94666 13.708L4.31999 10.0247L1.85332 7.26467C1.75614 7.15602 1.68916 7.02378 1.65907 6.88115C1.62897 6.73852 1.63682 6.59049 1.68182 6.45184C1.72682 6.31319 1.80741 6.18877 1.91553 6.091C2.02365 5.99323 2.15553 5.92553 2.29799 5.89467L5.91666 5.11067L7.77999 1.912Z" fill="#275DA4"/>
</g>
<defs>
<clipPath id="clip0_2172_8073">
<rect width="16" height="16" fill="white" transform="translate(0.5)"/>
</clipPath>
</defs>
</svg>
