<svg width="41" height="40" viewBox="0 0 41 40" fill="none" xmlns="http://www.w3.org/2000/svg">
<g clip-path="url(#clip0_2172_9294)">
<path d="M20.7856 9.72501L20.3944 9.871L4.76939 16.307L1.21689 17.747L3.28564 18.5614V32.0082C2.53939 32.5415 2.03564 33.5142 2.03564 34.6515C2.03564 35.4666 2.29903 36.2484 2.76787 36.8248C3.23671 37.4012 3.8726 37.725 4.53564 37.725C5.19868 37.725 5.83456 37.4012 6.30341 36.8248C6.77225 36.2484 7.03564 35.4666 7.03564 34.6515C7.03564 33.5142 6.53189 32.5415 5.78564 32.0082V19.6218L8.28564 20.6284V28.5044C8.28564 29.7645 8.91064 30.8095 9.65314 31.5318C10.3956 32.2495 11.3181 32.7566 12.4256 33.2115C14.6431 34.1182 17.5656 34.6515 20.7856 34.6515C24.0056 34.6515 26.9281 34.1197 29.1456 33.21C30.2531 32.7566 31.1756 32.2495 31.9181 31.5303C32.6606 30.8095 33.2856 29.7645 33.2856 28.5044V20.6284L36.8019 19.1869L40.3544 17.747L36.8006 16.3055L21.1756 9.871L20.7856 9.72501ZM20.7856 12.9445L32.5044 17.747L20.7856 22.5494L9.06689 17.747L20.7856 12.9445ZM10.7856 21.6857L20.3956 25.6229L20.7856 25.7674L21.1769 25.6214L30.7856 21.6842V28.5044C30.7856 28.5197 30.7906 28.698 30.3944 29.0807C29.9994 29.4649 29.2906 29.9489 28.3631 30.3301C26.5106 31.0877 23.7794 31.5779 20.7856 31.5779C17.7919 31.5779 15.0606 31.0892 13.2069 30.3285C12.2819 29.9489 11.5719 29.4633 11.1769 29.0807C10.7794 28.6965 10.7856 28.5197 10.7856 28.5044V21.6857Z" fill="#E9EEEE"/>
</g>
<defs>
<clipPath id="clip0_2172_9294">
<rect width="40" height="40" fill="white" transform="translate(0.785645)"/>
</clipPath>
</defs>
</svg>
