<svg width="16" height="16" viewBox="0 0 16 16" fill="none" xmlns="http://www.w3.org/2000/svg">
<path fill-rule="evenodd" clip-rule="evenodd" d="M10.159 10.72C10.0853 10.7887 10.0262 10.8715 9.98522 10.9635C9.94423 11.0555 9.92218 11.1548 9.92041 11.2555C9.91863 11.3562 9.93716 11.4562 9.97488 11.5496C10.0126 11.643 10.0687 11.7278 10.14 11.799C10.2112 11.8703 10.296 11.9264 10.3894 11.9641C10.4828 12.0018 10.5828 12.0204 10.6835 12.0186C10.7842 12.0168 10.8835 11.9948 10.9755 11.9538C11.0675 11.9128 11.1503 11.8537 11.219 11.78L14.469 8.53L15 8L14.47 7.47L11.22 4.22C11.0786 4.08331 10.8892 4.00763 10.6925 4.00924C10.4959 4.01086 10.3078 4.08965 10.1686 4.22864C10.0295 4.36763 9.95054 4.5557 9.94874 4.75235C9.94694 4.949 10.0224 5.13848 10.159 5.28L12.129 7.25H1.75C1.55109 7.25 1.36032 7.32902 1.21967 7.46967C1.07902 7.61032 1 7.80109 1 8C1 8.19891 1.07902 8.38968 1.21967 8.53033C1.36032 8.67098 1.55109 8.75 1.75 8.75H12.129L10.159 10.72Z" fill="#010010"/>
</svg>
