<svg width="24" height="24" viewBox="0 0 24 24" fill="none" xmlns="http://www.w3.org/2000/svg">
<path d="M12 5.83502L11.7653 5.92262L2.39029 9.78422L0.258789 10.6482L1.50004 11.1369V19.2049C1.05229 19.5249 0.750039 20.1086 0.750039 20.7909C0.750039 21.28 0.908074 21.749 1.18938 22.0949C1.47068 22.4407 1.85221 22.635 2.25004 22.635C2.64786 22.635 3.02939 22.4407 3.3107 22.0949C3.592 21.749 3.75004 21.28 3.75004 20.7909C3.75004 20.1086 3.44779 19.5249 3.00004 19.2049V11.7731L4.50004 12.3771V17.1026C4.50004 17.8587 4.87504 18.4857 5.32054 18.9191C5.76604 19.3497 6.31954 19.654 6.98404 19.9269C8.31454 20.4709 10.068 20.7909 12 20.7909C13.932 20.7909 15.6855 20.4719 17.016 19.926C17.6805 19.654 18.234 19.3497 18.6795 18.9182C19.125 18.4857 19.5 17.8587 19.5 17.1026V12.3771L21.6098 11.5122L23.7413 10.6482L21.609 9.7833L12.234 5.92262L12 5.83502ZM12 7.76675L19.0313 10.6482L12 13.5296L4.96879 10.6482L12 7.76675ZM6.00004 13.0114L11.766 15.3738L12 15.4604L12.2348 15.3728L18 13.0105V17.1026C18 17.1119 18.003 17.2188 17.7653 17.4484C17.5283 17.6789 17.103 17.9694 16.5465 18.1981C15.435 18.6526 13.7963 18.9468 12 18.9468C10.2038 18.9468 8.56504 18.6536 7.45279 18.1971C6.89779 17.9694 6.47179 17.678 6.23479 17.4484C5.99629 17.2179 6.00004 17.1119 6.00004 17.1026V13.0114Z" fill="#4A5354"/>
</svg>
