<svg width="25" height="24" viewBox="0 0 25 24" fill="none" xmlns="http://www.w3.org/2000/svg">
<g clip-path="url(#clip0_2172_8079)">
<path d="M15.8333 17.3333C15.8333 17.5101 15.7631 17.6797 15.6381 17.8047C15.5131 17.9298 15.3435 18 15.1667 18H5.83334C5.68668 18 5.54668 18.1333 5.42668 18.22L3.16668 20V9.33333C3.16668 9.15652 3.23691 8.98695 3.36194 8.86192C3.48696 8.7369 3.65653 8.66666 3.83334 8.66666H6.40668V7.33333H3.83334C3.30291 7.33333 2.7942 7.54404 2.41913 7.91911C2.04406 8.29419 1.83334 8.8029 1.83334 9.33333V21.3333C1.83434 21.4571 1.86979 21.5782 1.93573 21.683C2.00167 21.7878 2.09549 21.8722 2.20668 21.9267C2.3138 21.9754 2.4319 21.9949 2.54899 21.9832C2.66609 21.9715 2.77799 21.929 2.87334 21.86L6.30668 19.3333H15.2667C15.5193 19.3408 15.7709 19.2963 16.0056 19.2026C16.2404 19.1089 16.4535 18.9681 16.6316 18.7887C16.8097 18.6093 16.9491 18.3953 17.0411 18.1599C17.1332 17.9244 17.1759 17.6726 17.1667 17.42V16.6667H15.8333V17.3333Z" fill="#010010"/>
<path d="M21.1667 2.66667H9.83334C9.30291 2.66667 8.7942 2.87739 8.41913 3.25246C8.04406 3.62753 7.83334 4.13624 7.83334 4.66667V12.6667C7.83334 13.1971 8.04406 13.7058 8.41913 14.0809C8.7942 14.456 9.30291 14.6667 9.83334 14.6667H18.8667L22.0533 17.14C22.1481 17.21 22.2597 17.2537 22.3768 17.2666C22.4939 17.2795 22.6123 17.2611 22.72 17.2133C22.8335 17.1593 22.9293 17.0743 22.9966 16.9682C23.0638 16.862 23.0997 16.739 23.1 16.6133V4.66667C23.1003 4.14759 22.8988 3.64873 22.538 3.27552C22.1772 2.9023 21.6855 2.68397 21.1667 2.66667ZM21.8333 15.2933L19.5 13.4733C19.3836 13.383 19.2406 13.3338 19.0933 13.3333H9.83334C9.65653 13.3333 9.48696 13.2631 9.36194 13.1381C9.23691 13.0131 9.16668 12.8435 9.16668 12.6667V4.66667C9.16668 4.48986 9.23691 4.32029 9.36194 4.19527C9.48696 4.07024 9.65653 4.00001 9.83334 4.00001H21.1667C21.3449 4.01618 21.511 4.09695 21.6338 4.22711C21.7566 4.35727 21.8276 4.52783 21.8333 4.70667V15.2933Z" fill="#010010"/>
</g>
<defs>
<clipPath id="clip0_2172_8079">
<rect width="24" height="24" fill="white" transform="translate(0.5)"/>
</clipPath>
</defs>
</svg>
