<svg width="40" height="40" viewBox="0 0 40 40" fill="none" xmlns="http://www.w3.org/2000/svg">
<rect x="0.5" y="0.5" width="39" height="39" rx="9.5" stroke="#4A5354"/>
<g clip-path="url(#clip0_2344_4142)">
<path d="M12.5766 22.7816L11.6484 26.2468L8.25576 26.3186C7.24185 24.438 6.66675 22.2864 6.66675 19.9999C6.66675 17.7889 7.20446 15.7039 8.15758 13.868H8.15831L11.1787 14.4218L12.5019 17.4241C12.2249 18.2314 12.074 19.0981 12.074 19.9999C12.0741 20.9787 12.2514 21.9164 12.5766 22.7816Z" fill="#4A5354"/>
<path d="M33.1007 17.5092C33.2538 18.3157 33.3337 19.1487 33.3337 20C33.3337 20.9546 33.2333 21.8857 33.0421 22.7839C32.393 25.8403 30.6971 28.5092 28.3476 30.3978L28.3469 30.3971L24.5425 30.203L24.0041 26.8418C25.563 25.9275 26.7814 24.4967 27.4231 22.7839H20.2935V17.5092H27.5272H33.1007Z" fill="#4A5354"/>
<path d="M28.3464 30.3972L28.3472 30.3979C26.0622 32.2345 23.1596 33.3334 19.9999 33.3334C14.9223 33.3334 10.5076 30.4953 8.25562 26.3188L12.5765 22.7818C13.7025 25.7869 16.6014 27.9261 19.9999 27.9261C21.4607 27.9261 22.8293 27.5312 24.0036 26.8419L28.3464 30.3972Z" fill="#4A5354"/>
<path d="M28.5108 9.73627L24.1914 13.2725C22.976 12.5128 21.5394 12.074 20.0002 12.074C16.5247 12.074 13.5716 14.3113 12.502 17.4242L8.15844 13.8681H8.15771C10.3768 9.58976 14.8471 6.66669 20.0002 6.66669C23.2354 6.66669 26.2017 7.81908 28.5108 9.73627Z" fill="#4A5354"/>
</g>
<defs>
<clipPath id="clip0_2344_4142">
<rect width="26.6667" height="26.6667" fill="white" transform="translate(6.66675 6.66669)"/>
</clipPath>
</defs>
</svg>
