<svg width="32" height="32" viewBox="0 0 32 32" fill="none" xmlns="http://www.w3.org/2000/svg">
<path d="M15.9986 9.83606C14.3635 9.83606 12.7953 10.4856 11.6391 11.6418C10.4829 12.7981 9.83331 14.3662 9.83331 16.0014C9.83331 17.6365 10.4829 19.2047 11.6391 20.3609C12.7953 21.5172 14.3635 22.1667 15.9986 22.1667C17.6338 22.1667 19.202 21.5172 20.3582 20.3609C21.5144 19.2047 22.164 17.6365 22.164 16.0014C22.164 14.3662 21.5144 12.7981 20.3582 11.6418C19.202 10.4856 17.6338 9.83606 15.9986 9.83606ZM15.9986 20.0054C15.4727 20.0054 14.9518 19.9018 14.4659 19.7005C13.9799 19.4992 13.5384 19.2042 13.1664 18.8323C12.7945 18.4603 12.4995 18.0188 12.2982 17.5328C12.0969 17.0469 11.9933 16.526 11.9933 16.0001C11.9933 15.4741 12.0969 14.9532 12.2982 14.4673C12.4995 13.9813 12.7945 13.5398 13.1664 13.1679C13.5384 12.7959 13.9799 12.5009 14.4659 12.2996C14.9518 12.0983 15.4727 11.9947 15.9986 11.9947C17.0609 11.9947 18.0797 12.4167 18.8308 13.1679C19.582 13.919 20.004 14.9378 20.004 16.0001C20.004 17.0623 19.582 18.0811 18.8308 18.8323C18.0797 19.5834 17.0609 20.0054 15.9986 20.0054Z" fill="#BABABA"/>
<path d="M22.408 11.0467C23.2018 11.0467 23.8453 10.4031 23.8453 9.60933C23.8453 8.81551 23.2018 8.172 22.408 8.172C21.6142 8.172 20.9706 8.81551 20.9706 9.60933C20.9706 10.4031 21.6142 11.0467 22.408 11.0467Z" fill="#BABABA"/>
<path d="M27.3774 8.14805C27.069 7.35075 26.5975 6.6267 25.9929 6.02235C25.3883 5.41801 24.6641 4.94672 23.8667 4.63871C22.9338 4.28837 21.9483 4.09901 20.952 4.07871C19.668 4.02271 19.2614 4.00671 16.0054 4.00671C12.7494 4.00671 12.332 4.00671 11.0587 4.07871C10.0633 4.09932 9.07869 4.28867 8.14669 4.63871C7.34927 4.94672 6.62504 5.41801 6.02046 6.02235C5.41589 6.6267 4.94432 7.35075 4.63602 8.14805C4.28613 9.08097 4.09723 10.0665 4.07735 11.0627C4.02002 12.3454 4.00269 12.752 4.00269 16.0094C4.00269 19.2667 4.00269 19.68 4.07735 20.956C4.09735 21.9534 4.28535 22.9374 4.63602 23.872C4.94447 24.6695 5.41624 25.3936 6.02105 25.998C6.62587 26.6023 7.35035 27.0735 8.14802 27.3814C9.07805 27.7452 10.0632 27.9481 11.0614 27.9814C12.3454 28.0374 12.752 28.0547 16.008 28.0547C19.264 28.0547 19.6814 28.0547 20.9547 27.9814C21.9509 27.9615 22.9364 27.7726 23.8694 27.4227C24.6669 27.1146 25.3912 26.6431 25.9958 26.0385C26.6004 25.4339 27.0719 24.7096 27.38 23.912C27.7307 22.9787 27.9187 21.9947 27.9387 20.9974C27.996 19.7147 28.0134 19.308 28.0134 16.0507C28.0134 12.7934 28.0134 12.38 27.9387 11.104C27.9227 10.0938 27.7328 9.09385 27.3774 8.14805ZM25.7534 20.8574C25.7459 21.6259 25.6056 22.3873 25.3387 23.108C25.1375 23.626 24.8307 24.0964 24.4376 24.4891C24.0446 24.8819 23.5741 25.1885 23.056 25.3894C22.3429 25.6536 21.5898 25.7938 20.8294 25.804C19.5627 25.8627 19.2054 25.8774 15.9574 25.8774C12.7067 25.8774 12.3747 25.8774 11.084 25.804C10.324 25.7937 9.5714 25.6534 8.85869 25.3894C8.33889 25.1896 7.86654 24.8835 7.47186 24.4907C7.07719 24.0978 6.76888 23.6269 6.56669 23.108C6.3051 22.3946 6.16494 21.6425 6.15202 20.8827C6.09469 19.616 6.08135 19.2587 6.08135 16.0107C6.08135 12.7627 6.08135 12.4294 6.15202 11.1374C6.15963 10.3693 6.29992 9.60834 6.56669 8.88805C6.97335 7.83605 7.80669 7.00805 8.85869 6.60538C9.5714 6.34131 10.324 6.20107 11.084 6.19071C12.352 6.13338 12.708 6.11738 15.9574 6.11738C19.2067 6.11738 19.54 6.11738 20.8294 6.19071C21.5898 6.20092 22.3429 6.34116 23.056 6.60538C23.5742 6.80639 24.0448 7.11319 24.4379 7.50621C24.8309 7.89923 25.1377 8.36985 25.3387 8.88805C25.6003 9.60145 25.7404 10.3536 25.7534 11.1134C25.8107 12.3814 25.8254 12.7374 25.8254 15.9867C25.8254 19.236 25.8254 19.584 25.768 20.8587L25.7534 20.8574Z" fill="#BABABA"/>
</svg>
