<svg width="24" height="24" viewBox="0 0 24 24" fill="none" xmlns="http://www.w3.org/2000/svg">
<path fill-rule="evenodd" clip-rule="evenodd" d="M4.59195 15.304C2.34395 9.787 6.40296 3.75 12.36 3.75H12.681C14.8206 3.75053 16.8724 4.60072 18.3853 6.11365C19.8982 7.62658 20.7484 9.6784 20.749 11.818C20.7492 12.9976 20.5171 14.1657 20.0658 15.2556C19.6145 16.3454 18.9529 17.3357 18.1188 18.1698C17.2847 19.0039 16.2944 19.6655 15.2045 20.1168C14.1147 20.5681 12.9466 20.8003 11.767 20.8H3.94695C3.79158 20.8001 3.63999 20.752 3.51314 20.6623C3.38629 20.5725 3.29045 20.4456 3.23885 20.2991C3.18725 20.1525 3.18245 19.9935 3.2251 19.8441C3.26775 19.6947 3.35576 19.5622 3.47695 19.465L5.44795 17.882C5.4901 17.8482 5.52018 17.8018 5.5337 17.7495C5.54722 17.6972 5.54345 17.642 5.52295 17.592L4.59195 15.304ZM12.36 5.25C7.46695 5.25 4.13396 10.207 5.97995 14.738L6.91196 17.027C7.05396 17.3759 7.07957 17.7614 6.98498 18.126C6.89039 18.4907 6.68066 18.8151 6.38696 19.051L6.07796 19.3H11.767C12.7496 19.3003 13.7226 19.1069 14.6305 18.731C15.5384 18.3551 16.3633 17.804 17.0581 17.1092C17.7529 16.4143 18.304 15.5894 18.68 14.6815C19.0559 13.7737 19.2492 12.8006 19.249 11.818C19.2484 10.0762 18.5563 8.40593 17.3246 7.17431C16.093 5.94268 14.4227 5.25053 12.681 5.25H12.36Z" fill="#4A5354"/>
</svg>
