<svg width="33" height="32" viewBox="0 0 33 32" fill="none" xmlns="http://www.w3.org/2000/svg">
<path d="M8.50002 2.66663H19.1667V5.33329H8.50002V2.66663ZM5.83335 7.99996V5.33329H8.50002V7.99996H5.83335ZM5.83335 18.6666H3.16669V7.99996H5.83335V18.6666ZM8.50002 21.3333H5.83335V18.6666H8.50002V21.3333ZM19.1667 21.3333V24H8.50002V21.3333H19.1667ZM21.8334 18.6666H19.1667V21.3333H21.8334V24H24.5V26.6666H27.1667V29.3333H29.8334V26.6666H27.1667V24H24.5V21.3333H21.8334V18.6666ZM21.8334 7.99996H24.5V18.6666H21.8334V7.99996ZM21.8334 7.99996V5.33329H19.1667V7.99996H21.8334Z" fill="#E9EEEE"/>
</svg>
