<svg width="24" height="24" viewBox="0 0 24 24" fill="none" xmlns="http://www.w3.org/2000/svg">
<path d="M12.865 2.99603C12.7771 2.84449 12.6509 2.71871 12.4991 2.63127C12.3473 2.54383 12.1752 2.4978 12 2.4978C11.8248 2.4978 11.6527 2.54383 11.5009 2.63127C11.3491 2.71871 11.2229 2.84449 11.135 2.99603L8.42101 7.67403C8.327 7.83583 8.19787 7.97445 8.04314 8.07968C7.88841 8.18492 7.71203 8.25406 7.52701 8.28203L2.44001 9.05003C1.58601 9.18003 1.28601 10.258 1.95201 10.81L5.74101 13.948C6.09101 14.239 6.25601 14.698 6.17101 15.145L5.18001 20.35C5.14481 20.5349 5.16249 20.7259 5.23101 20.9012C5.29953 21.0764 5.41611 21.2288 5.56735 21.3408C5.71859 21.4527 5.89835 21.5198 6.08598 21.5341C6.2736 21.5485 6.46148 21.5097 6.62801 21.422L11.418 18.9C11.5975 18.8056 11.7972 18.7563 12 18.7563C12.2028 18.7563 12.4025 18.8056 12.582 18.9L17.372 21.422C17.5385 21.5097 17.7264 21.5485 17.914 21.5341C18.1017 21.5198 18.2814 21.4527 18.4327 21.3408C18.5839 21.2288 18.7005 21.0764 18.769 20.9012C18.8375 20.7259 18.8552 20.5349 18.82 20.35L17.829 15.145C17.787 14.9253 17.8047 14.6983 17.8804 14.4878C17.956 14.2772 18.0868 14.0908 18.259 13.948L22.049 10.809C22.714 10.259 22.414 9.17903 21.559 9.05003L16.474 8.28203C16.2888 8.2542 16.1122 8.18512 15.9573 8.07988C15.8024 7.97465 15.6731 7.83595 15.579 7.67403L12.865 2.99603Z" fill="#275DA4"/>
</svg>
