<svg width="41" height="40" viewBox="0 0 41 40" fill="none" xmlns="http://www.w3.org/2000/svg">
<path d="M24.442 35C25.1323 35 25.692 34.4404 25.692 33.75C25.692 33.0596 25.1323 32.5 24.442 32.5C23.7516 32.5 23.192 33.0596 23.192 33.75C23.192 34.4404 23.7516 35 24.442 35Z" fill="#E9EEEE"/>
<path d="M36.942 38.75H20.692C19.3132 38.75 18.192 37.6287 18.192 36.25V31.25C18.192 29.8713 19.3132 28.75 20.692 28.75H36.942C38.3207 28.75 39.442 29.8713 39.442 31.25V36.25C39.442 37.6287 38.3207 38.75 36.942 38.75ZM20.692 31.25V36.25H36.942V31.25H20.692ZM36.942 26.25H20.692C19.3132 26.25 18.192 25.1287 18.192 23.75V18.75C18.192 17.3712 19.3132 16.25 20.692 16.25H36.942C38.3207 16.25 39.442 17.3712 39.442 18.75V23.75C39.442 25.1287 38.3207 26.25 36.942 26.25ZM20.692 18.75V23.75H36.942V18.75H20.692Z" fill="#E9EEEE"/>
<path d="M15.692 34.125C9.87572 32.06 5.69197 26.5163 5.69197 20C5.69197 11.7288 12.4207 5 20.692 5C26.7307 5 31.9345 8.595 34.3107 13.75H37.0182C34.4945 7.1825 28.1382 2.5 20.692 2.5C11.042 2.5 3.19197 10.35 3.19197 20C3.19197 27.9125 8.47322 34.6063 15.692 36.7625V34.125Z" fill="#E9EEEE"/>
</svg>
