<svg width="41" height="40" viewBox="0 0 41 40" fill="none" xmlns="http://www.w3.org/2000/svg">
<path d="M15.3561 23.75L20.2311 20.7917L25.1061 23.75L23.8144 18.2083L28.1478 14.4583L22.4394 14L20.2311 8.75001L18.0228 14L12.3144 14.4583L16.6478 18.2083L15.3561 23.75ZM3.56442 36.6667V6.66668C3.56442 5.75001 3.89109 4.96557 4.54442 4.31334C5.19776 3.66112 5.9822 3.33445 6.89776 3.33334H33.5644C34.4811 3.33334 35.2661 3.66001 35.9194 4.31334C36.5728 4.96668 36.8989 5.75112 36.8978 6.66668V26.6667C36.8978 27.5833 36.5716 28.3683 35.9194 29.0217C35.2672 29.675 34.4822 30.0011 33.5644 30H10.2311L3.56442 36.6667ZM8.81442 26.6667H33.5644V6.66668H6.89776V28.5417L8.81442 26.6667Z" fill="#E9EEEE"/>
</svg>
