<svg width="24" height="24" viewBox="0 0 24 24" fill="none" xmlns="http://www.w3.org/2000/svg">
<g clip-path="url(#clip0_2255_1942)">
<path d="M11.9999 1.33331C9.89026 1.33331 7.82796 1.9589 6.07384 3.13097C4.31972 4.30304 2.95254 5.96894 2.14521 7.91802C1.33787 9.8671 1.12664 12.0118 1.53821 14.0809C1.94979 16.1501 2.96569 18.0507 4.45745 19.5425C5.94921 21.0342 7.84983 22.0501 9.91896 22.4617C11.9881 22.8733 14.1328 22.662 16.0819 21.8547C18.031 21.0474 19.6969 19.6802 20.8689 17.9261C22.041 16.1719 22.6666 14.1096 22.6666 12C22.6666 9.171 21.5428 6.4579 19.5424 4.45751C17.542 2.45712 14.8289 1.33331 11.9999 1.33331ZM11.9999 21.3333C10.154 21.3333 8.34946 20.7859 6.8146 19.7604C5.27974 18.7348 4.08347 17.2771 3.37705 15.5717C2.67063 13.8662 2.4858 11.9896 2.84593 10.1791C3.20606 8.36865 4.09497 6.70561 5.40026 5.40032C6.70555 4.09503 8.36859 3.20611 10.1791 2.84598C11.9896 2.48585 13.8662 2.67069 15.5716 3.3771C17.2771 4.08352 18.7347 5.2798 19.7603 6.81466C20.7859 8.34952 21.3333 10.154 21.3333 12C21.3333 14.4753 20.3499 16.8493 18.5996 18.5996C16.8492 20.35 14.4753 21.3333 11.9999 21.3333Z" fill="#4A5354"/>
<path d="M12.6134 12.2667V7.16667C12.6134 6.98986 12.5431 6.82029 12.4181 6.69526C12.2931 6.57024 12.1235 6.5 11.9467 6.5C11.7699 6.5 11.6003 6.57024 11.4753 6.69526C11.3503 6.82029 11.28 6.98986 11.28 7.16667V12.98L15.2134 15.6467C15.2858 15.7012 15.3686 15.7403 15.4567 15.7617C15.5448 15.7831 15.6364 15.7863 15.7257 15.7711C15.8151 15.7559 15.9005 15.7227 15.9766 15.6734C16.0526 15.6241 16.1179 15.5598 16.1683 15.4845C16.2187 15.4091 16.2532 15.3242 16.2696 15.2351C16.2861 15.1459 16.2843 15.0544 16.2641 14.966C16.244 14.8776 16.2061 14.7942 16.1527 14.7209C16.0992 14.6477 16.0314 14.5861 15.9534 14.54L12.6134 12.2667Z" fill="#4A5354"/>
<path d="M5.33339 11.96C5.32729 10.7607 5.64679 9.58221 6.25781 8.55021C6.86883 7.5182 7.74847 6.67137 8.80295 6.1C9.85742 5.52863 11.0472 5.25414 12.2454 5.3058C13.4436 5.35745 14.6053 5.73332 15.6067 6.39333L16.1734 5.48666C15.2222 4.8636 14.1448 4.45893 13.0187 4.30173C11.8925 4.14452 10.7455 4.23869 9.66008 4.57746C8.57464 4.91623 7.5777 5.4912 6.74088 6.26106C5.90406 7.03092 5.24813 7.97656 4.82021 9.03005C4.39229 10.0835 4.20301 11.2187 4.26596 12.3541C4.32891 13.4894 4.64253 14.5967 5.18428 15.5964C5.72604 16.5961 6.48249 17.4635 7.39929 18.1361C8.31609 18.8087 9.37048 19.27 10.4867 19.4867L10.6667 18.4667C9.16538 18.1602 7.81543 17.3459 6.84406 16.1609C5.87269 14.9758 5.33921 13.4923 5.33339 11.96Z" fill="#4A5354"/>
</g>
<defs>
<clipPath id="clip0_2255_1942">
<rect width="24" height="24" fill="white"/>
</clipPath>
</defs>
</svg>
