<svg width="24" height="24" viewBox="0 0 24 24" fill="none" xmlns="http://www.w3.org/2000/svg">
<g clip-path="url(#clip0_2170_3761)">
<path d="M18 2.475C16.2375 1.3875 14.2125 0.75 12 0.75V2.475H18Z" fill="#ED4C5C"/>
<path d="M12 4.2001H20.1C19.4625 3.5626 18.75 2.9626 18 2.4751H12V4.2001Z" fill="white"/>
<path d="M12 5.9252H21.4875C21.075 5.2877 20.625 4.7252 20.1375 4.2002H12V5.9252Z" fill="#ED4C5C"/>
<path d="M12 7.6498H22.3875C22.125 7.0498 21.825 6.4498 21.4875 5.9248H12V7.6498Z" fill="white"/>
<path d="M12 9.3749H22.95C22.8 8.7749 22.6125 8.2124 22.3875 7.6499H12V9.3749Z" fill="#ED4C5C"/>
<path d="M12 11.1376H23.2125C23.175 10.5376 23.0625 9.9751 22.95 9.4126H12V11.1376Z" fill="white"/>
<path d="M23.2125 11.1377H12V12.0002H0.75C0.75 12.3002 0.75 12.5627 0.7875 12.8627H23.2125C23.25 12.5627 23.25 12.3002 23.25 12.0002C23.25 11.7002 23.25 11.4002 23.2125 11.1377Z" fill="#ED4C5C"/>
<path d="M1.04998 14.5873H22.95C23.1 14.0248 23.175 13.4623 23.2125 12.8623H0.787476C0.824976 13.4248 0.899976 14.0248 1.04998 14.5873Z" fill="white"/>
<path d="M1.61255 16.3124H22.3876C22.6126 15.7499 22.8001 15.1874 22.9501 14.5874H1.05005C1.20005 15.1874 1.38755 15.7499 1.61255 16.3124Z" fill="#ED4C5C"/>
<path d="M2.51255 18.0375H21.4876C21.8251 17.475 22.1251 16.9125 22.3876 16.3125H1.61255C1.87505 16.9125 2.17505 17.475 2.51255 18.0375Z" fill="white"/>
<path d="M3.86245 19.7626H20.1374C20.625 19.2376 21.1124 18.6376 21.4874 18.0376H2.51245C2.88745 18.6751 3.37495 19.2376 3.86245 19.7626Z" fill="#ED4C5C"/>
<path d="M5.96255 21.4877H18.0375C18.825 21.0002 19.5001 20.4002 20.1376 19.7627H3.86255C4.50005 20.4377 5.21255 21.0002 5.96255 21.4877Z" fill="white"/>
<path d="M12 23.2498C14.2125 23.2498 16.275 22.6123 18.0375 21.4873H5.96252C7.72502 22.6123 9.78752 23.2498 12 23.2498Z" fill="#ED4C5C"/>
<path d="M6 2.475C5.2125 2.9625 4.5 3.5625 3.8625 4.2C3.3375 4.725 2.8875 5.325 2.5125 5.925C2.175 6.4875 1.8375 7.05 1.6125 7.65C1.3875 8.2125 1.2 8.775 1.05 9.375C0.9 9.9375 0.825 10.5 0.7875 11.1C0.75 11.4 0.75 11.7 0.75 12H12V0.75C9.7875 0.75 7.7625 1.3875 6 2.475Z" fill="#428BC1"/>
<path d="M9.37502 1.125L9.56252 1.6875H10.125L9.67502 2.0625L9.82502 2.625L9.37502 2.2875L8.92502 2.625L9.07502 2.0625L8.62502 1.6875H9.18752L9.37502 1.125ZM10.875 3.375L11.0625 3.9375H11.625L11.175 4.3125L11.325 4.875L10.875 4.5375L10.425 4.875L10.575 4.3125L10.125 3.9375H10.6875L10.875 3.375ZM7.87502 3.375L8.06252 3.9375H8.62502L8.17502 4.3125L8.32502 4.875L7.87502 4.5375L7.42502 4.875L7.57502 4.3125L7.12502 3.9375H7.68752L7.87502 3.375ZM9.37502 5.625L9.56252 6.1875H10.125L9.67502 6.5625L9.82502 7.125L9.37502 6.7875L8.92502 7.125L9.07502 6.5625L8.62502 6.1875H9.18752L9.37502 5.625ZM6.37502 5.625L6.56252 6.1875H7.12502L6.67502 6.5625L6.82502 7.125L6.37502 6.7875L5.92502 7.125L6.07502 6.5625L5.62502 6.1875H6.18752L6.37502 5.625ZM3.37502 5.625L3.56252 6.1875H4.12502L3.67502 6.5625L3.82502 7.125L3.37502 6.7875L2.92502 7.125L3.07502 6.5625L2.62502 6.1875H3.18752L3.37502 5.625ZM10.875 7.875L11.0625 8.4375H11.625L11.175 8.8125L11.325 9.375L10.875 9.0375L10.425 9.375L10.575 8.8125L10.125 8.4375H10.6875L10.875 7.875ZM7.87502 7.875L8.06252 8.4375H8.62502L8.17502 8.8125L8.32502 9.375L7.87502 9.0375L7.42502 9.375L7.57502 8.8125L7.12502 8.4375H7.68752L7.87502 7.875ZM4.87502 7.875L5.06252 8.4375H5.62502L5.17502 8.8125L5.32502 9.375L4.87502 9.0375L4.42502 9.375L4.57502 8.8125L4.12502 8.4375H4.68752L4.87502 7.875ZM9.37502 10.125L9.56252 10.6875H10.125L9.67502 11.0625L9.82502 11.625L9.37502 11.2875L8.92502 11.625L9.07502 11.0625L8.62502 10.6875H9.18752L9.37502 10.125ZM6.37502 10.125L6.56252 10.6875H7.12502L6.67502 11.0625L6.82502 11.625L6.37502 11.2875L5.92502 11.625L6.07502 11.0625L5.62502 10.6875H6.18752L6.37502 10.125ZM3.37502 10.125L3.56252 10.6875H4.12502L3.67502 11.0625L3.82502 11.625L3.37502 11.2875L2.92502 11.625L3.07502 11.0625L2.62502 10.6875H3.18752L3.37502 10.125ZM4.42502 4.875L4.87502 4.5375L5.32502 4.875L5.13752 4.3125L5.58752 3.9375H5.02502L4.87502 3.375L4.68752 3.9375H4.16252L4.61252 4.275L4.42502 4.875ZM1.42502 9.375L1.87502 9.0375L2.32502 9.375L2.13752 8.8125L2.58752 8.4375H2.06252L1.87502 7.875L1.68752 8.4375H1.31252C1.31252 8.475 1.27502 8.5125 1.27502 8.55L1.57502 8.775L1.42502 9.375Z" fill="white"/>
</g>
<defs>
<clipPath id="clip0_2170_3761">
<rect width="24" height="24" fill="white"/>
</clipPath>
</defs>
</svg>
